HIERARCHY
ROOT Hip
{
	OFFSET 0 1.131 0.0052
	CHANNELS 6 Xposition Yposition Zposition Xrotation Yrotation Zrotation
	JOINT Abdomen
	{
		OFFSET 0 -0.047353 -0.05
		CHANNELS 3 Xrotation Zrotation Yrotation
		JOINT Chest
		{
			OFFSET 0 0.132153 0.007439
			CHANNELS 3 Xrotation Zrotation Yrotation
			JOINT Neck
			{
				OFFSET 0 0.3078 0.006161
				CHANNELS 3 Xrotation Zrotation Yrotation
				JOINT Head_comp
				{
					OFFSET 0 0.0884 0.013
					CHANNELS 3 Xrotation Yrotation Zrotation
					End Site
					{
						OFFSET -0 0.156 0.0624
					}
				}
			}
			JOINT Left_Collar
			{
				OFFSET 0.02282 0.250342 0.017193
				CHANNELS 2 Yrotation Zrotation
				JOINT Left_Shoulder
				{
					OFFSET 0.15421 0 0
					CHANNELS 3 Xrotation Yrotation Zrotation
					JOINT Left_Forearm
					{
						OFFSET 0.265212 0 0
						CHANNELS 2 Yrotation Xrotation
						JOINT Left_Hand
						{
							OFFSET 0.27571 0 0
							CHANNELS 2 Zrotation Yrotation
							JOINT L1ProxPhalanx
							{
								OFFSET 0.014142 0.001733 0.014142
								CHANNELS 3 Yrotation Zrotation Xrotation
								JOINT L1MidPhalanx
								{
									OFFSET 0.04 0 0
									CHANNELS 1 Zrotation
									JOINT L1DistPhalanx
									{
										OFFSET 0.035 0 0
										CHANNELS 1 Zrotation
										End Site
										{
											OFFSET 0.029 -0 -0
										}
									}
								}
							}
							JOINT L2ProxPhalanx
							{
								OFFSET 0.0821037 0.001578 0.0219996
								CHANNELS 2 Yrotation Zrotation
								JOINT L2MidPhalanx
								{
									OFFSET 0.04 0 0
									CHANNELS 1 Zrotation
									JOINT L2DistPhalanx
									{
										OFFSET 0.028 0 0
										CHANNELS 1 Zrotation
										End Site
										{
											OFFSET 0.02 -0 -0
										}
									}
								}
							}
							JOINT L3ProxPhalanx
							{
								OFFSET 0.083 0 0
								CHANNELS 2 Yrotation Zrotation
								JOINT L3MidPhalanx
								{
									OFFSET 0.053 0 0
									CHANNELS 1 Zrotation
									JOINT L3DistPhalanx
									{
										OFFSET 0.03 0 0
										CHANNELS 1 Zrotation
										End Site
										{
											OFFSET 0.023 -0 -0
										}
									}
								}
							}
							JOINT L4ProxPhalanx
							{
								OFFSET 0.077274 -0.000761 -0.0207055
								CHANNELS 2 Yrotation Zrotation
								JOINT L4MidPhalanx
								{
									OFFSET 0.05 0 0
									CHANNELS 1 Zrotation
									JOINT L4DistPhalanx
									{
										OFFSET 0.03 0 0
										CHANNELS 1 Zrotation
										End Site
										{
											OFFSET 0.023 -0 -0
										}
									}
								}
							}
							JOINT L5ProxPhalanx
							{
								OFFSET 0.0675499 -0.001644 -0.039
								CHANNELS 2 Yrotation Zrotation
								JOINT L5MidPhalanx
								{
									OFFSET 0.04 0 0
									CHANNELS 1 Zrotation
									JOINT L5DistPhalanx
									{
										OFFSET 0.021 0 0
										CHANNELS 1 Zrotation
										End Site
										{
											OFFSET 0.022 -0 -0
										}
									}
								}
							}
						}
					}
				}
			}
			JOINT Right_Collar
			{
				OFFSET -0.02282 0.250342 0.017193
				CHANNELS 2 Yrotation Zrotation
				JOINT Right_Shoulder
				{
					OFFSET -0.15421 0 0
					CHANNELS 3 Xrotation Yrotation Zrotation
					JOINT Right_Forearm
					{
						OFFSET -0.265212 0 0
						CHANNELS 2 Yrotation Xrotation
						JOINT Right_Hand
						{
							OFFSET -0.27571 3e-006 0
							CHANNELS 2 Zrotation Yrotation
							JOINT R1ProxPhalanx
							{
								OFFSET -0.014142 0.001733 0.014142
								CHANNELS 3 Yrotation Zrotation Xrotation
								JOINT R1MidPhalanx
								{
									OFFSET -0.04 0 0
									CHANNELS 1 Zrotation
									JOINT R1DistPhalanx
									{
										OFFSET -0.035 0 0
										CHANNELS 1 Zrotation
										End Site
										{
											OFFSET -0.029 -0 -0
										}
									}
								}
							}
							JOINT R2ProxPhalanx
							{
								OFFSET -0.0821037 0.001578 0.0219996
								CHANNELS 2 Yrotation Zrotation
								JOINT R2MidPhalanx
								{
									OFFSET -0.04 0 0
									CHANNELS 1 Zrotation
									JOINT R2DistPhalanx
									{
										OFFSET -0.028 0 0
										CHANNELS 1 Zrotation
										End Site
										{
											OFFSET -0.02 -0 -0
										}
									}
								}
							}
							JOINT R3ProxPhalanx
							{
								OFFSET -0.083 0 0
								CHANNELS 2 Yrotation Zrotation
								JOINT R3MidPhalanx
								{
									OFFSET -0.053 0 0
									CHANNELS 1 Zrotation
									JOINT R3DistPhalanx
									{
										OFFSET -0.03 0 0
										CHANNELS 1 Zrotation
										End Site
										{
											OFFSET -0.023 -0 -0
										}
									}
								}
							}
							JOINT R4ProxPhalanx
							{
								OFFSET -0.077274 -0.000761 -0.0207055
								CHANNELS 2 Yrotation Zrotation
								JOINT R4MidPhalanx
								{
									OFFSET -0.05 0 0
									CHANNELS 1 Zrotation
									JOINT R4DistPhalanx
									{
										OFFSET -0.03 0 0
										CHANNELS 1 Zrotation
										End Site
										{
											OFFSET -0.023 -0 -0
										}
									}
								}
							}
							JOINT R5ProxPhalanx
							{
								OFFSET -0.0675499 -0.001644 -0.039
								CHANNELS 2 Yrotation Zrotation
								JOINT R5MidPhalanx
								{
									OFFSET -0.04 0 0
									CHANNELS 1 Zrotation
									JOINT R5DistPhalanx
									{
										OFFSET -0.021 0 0
										CHANNELS 1 Zrotation
										End Site
										{
											OFFSET -0.022 -0 -0
										}
									}
								}
							}
						}
					}
				}
			}
		}
	}
	JOINT Left_Thigh
	{
		OFFSET 0.1118 -0.1612 -0.0442
		CHANNELS 3 Xrotation Zrotation Yrotation
		JOINT Left_Shin
		{
			OFFSET 0 -0.477856 0
			CHANNELS 1 Xrotation
			JOINT Left_Foot
			{
				OFFSET 0 -0.431952 0
				CHANNELS 2 Xrotation Zrotation
				JOINT Left_Toe
				{
					OFFSET 0 -0.0442 0.119
					CHANNELS 1 Xrotation
					End Site
					{
						OFFSET -0 -0 0.07
					}
				}
			}
		}
	}
	JOINT Right_Thigh
	{
		OFFSET -0.1118 -0.1612 -0.0442
		CHANNELS 3 Xrotation Zrotation Yrotation
		JOINT Right_Shin
		{
			OFFSET 0 -0.477856 0
			CHANNELS 1 Xrotation
			JOINT Right_Foot
			{
				OFFSET 0 -0.431952 0
				CHANNELS 2 Xrotation Zrotation
				JOINT Right_Toe
				{
					OFFSET 0 -0.0442 0.119
					CHANNELS 1 Xrotation
					End Site
					{
						OFFSET -0 -0 0.07
					}
				}
			}
		}
	}
}
MOTION
Frames: 6
Frame Time: 0.009975
-0.107258 -0.0600363 0.046742 3.61576e-013 4.31742e-008 -5.10921e-006 0 -0 0 0 -0 0 0 -0 0 -0.712447 0.307739 -5.4937e-012 -8.78195 -15.4327 -23.7606 -23.7519 -22.3015 -25.8763 13.6736 9.50262 -5.18842 -14.3963 -72.7393 130.79 -7.98308 -3.12944 0.103763 -22.2698 -10.571 -15.5823 4.54436 0.243278 -0.890033 -3.54162 2.07342 1.76139 -4.69138 -0.324638 5.13794 3.80897 -39.7239 36.732 0.230981 4.27862 29.8603 10.7138 65.6351 83.5579 0.370319 -0.585073 -0.00957448 37.9386 28.008 73.698 26.2405 28.4472 13.118 18.2167 29.0248 19.6359 0 22.4358 32.6146 28.1246 -8.63175 30.7051 32.2053 23.7634 -7.83088 26.7354 35.1526 30.0193 0.476165 -0.286019 -0.00237701 0.0240216 -0.500181 0.286034 0 0.487569 -0.286018 -0.00243394 2.41484e-006 -0.487566 0.286034 0 
-0.107337 -0.0600368 0.0468453 1.72472e-012 4.37865e-008 -5.1092e-006 0 -0 0 0 -0 0 0 -0 0 -0.712456 0.307989 -4.72994e-012 -8.78195 -15.4327 -23.7606 -23.7519 -22.3015 -25.8763 13.6736 9.50262 -5.18842 -14.3963 -72.7393 130.79 -7.98308 -3.12944 0.103763 -22.2698 -10.571 -15.5823 4.54436 0.243278 -0.890033 -3.54162 2.07342 1.76139 -4.69138 -0.324638 5.13794 3.80897 -39.7239 36.732 0.166942 4.16982 30.0874 10.8541 66.142 83.338 0.267649 -0.422862 -0.00691997 37.9386 28.008 73.698 26.2405 28.4472 13.118 18.2167 29.0248 19.6359 0 22.4358 32.6146 28.1246 -8.63175 30.7051 32.2053 23.7634 -7.83088 26.7354 35.1526 30.0193 0.48267 -0.281074 -0.00236784 0.0240216 -0.506686 0.281089 0 0.494074 -0.281073 -0.00242379 1.42998e-006 -0.49407 0.281089 0 
-0.107407 -0.0600372 0.0469366 4.33638e-013 4.43368e-008 -5.10919e-006 0 -0 0 0 -0 0 0 -0 0 -0.712465 0.30822 -3.8767e-012 -8.78195 -15.4327 -23.7606 -23.7519 -22.3015 -25.8763 13.6736 9.50262 -5.18842 -14.3963 -72.7393 130.79 -7.98308 -3.12944 0.103763 -22.2698 -10.571 -15.5823 4.54436 0.243278 -0.890033 -3.54162 2.07342 1.76139 -4.69138 -0.324638 5.13794 3.80897 -39.7239 36.732 0.110233 4.07353 30.28 10.9771 66.5934 83.1316 0.176732 -0.279221 -0.00456933 37.9386 28.008 73.698 26.2405 28.4472 13.118 18.2167 29.0248 19.6359 0 22.4358 32.6146 28.1246 -8.63175 30.7051 32.2053 23.7634 -7.83088 26.7354 35.1526 30.0193 0.488419 -0.276619 -0.00235809 0.0240216 -0.512435 0.276634 0 0.499824 -0.276619 -0.00241315 8.40967e-007 -0.499819 0.276634 0 
-0.107468 -0.0600376 0.0470133 -4.76874e-013 4.48133e-008 -5.10919e-006 0 -0 0 0 -0 0 0 -0 0 -0.712472 0.308429 -2.93717e-012 -8.78195 -15.4327 -23.7606 -23.7519 -22.3015 -25.8763 13.6736 9.50262 -5.18842 -14.3963 -72.7393 130.79 -7.98308 -3.12944 0.103763 -22.2698 -10.571 -15.5823 4.54436 0.243278 -0.890033 -3.54162 2.07342 1.76139 -4.69138 -0.324638 5.13794 3.80897 -39.7239 36.732 0.0625852 3.99274 30.4347 11.0805 66.9739 82.9483 0.10034 -0.158528 -0.00259424 37.9386 28.008 73.698 26.2405 28.4472 13.118 18.2167 29.0248 19.6359 0 22.4358 32.6146 28.1246 -8.63175 30.7051 32.2053 23.7634 -7.83088 26.7354 35.1526 30.0193 0.493252 -0.272788 -0.00234845 0.0240216 -0.517268 0.272803 0 0.504657 -0.272787 -0.00240275 1.70755e-006 -0.504653 0.272803 0 
-0.107516 -0.0600379 0.0470719 3.2519e-013 4.53314e-008 -5.10918e-006 0 -0 0 0 -0 0 0 -0 0 -0.712478 0.308611 -1.93176e-012 -8.78195 -15.4327 -23.7606 -23.7519 -22.3015 -25.8763 13.6736 9.50262 -5.18842 -14.3963 -72.7393 130.79 -7.98308 -3.12944 0.103763 -22.2698 -10.571 -15.5823 4.54436 0.243278 -0.890033 -3.54162 2.07342 1.76139 -4.69138 -0.324638 5.13794 3.80897 -39.7239 36.732 0.0265032 3.93173 30.5457 11.1603 67.2621 82.8013 0.0424911 -0.0671323 -0.00109859 37.9386 28.008 73.698 26.2405 28.4472 13.118 18.2167 29.0248 19.6359 0 22.4358 32.6146 28.1246 -8.63175 30.7051 32.2053 23.7634 -7.83088 26.7354 35.1526 30.0193 0.496941 -0.269768 -0.00233984 0.0240216 -0.520957 0.269783 0 0.508346 -0.269767 -0.00239354 8.75118e-007 -0.508341 0.269783 0 
-0.107547 -0.0600381 0.0471071 2.62056e-013 4.55291e-008 -5.10918e-006 0 -0 0 0 -0 0 0 -0 0 -0.712482 0.308756 -9.27585e-013 -8.78195 -15.4327 -23.7606 -23.7519 -22.3015 -25.8763 13.6736 9.50262 -5.18842 -14.3963 -72.7393 130.79 -7.98308 -3.12944 0.103763 -22.2698 -10.571 -15.5823 4.54436 0.243278 -0.890033 -3.54162 2.07342 1.76139 -4.69138 -0.324638 5.13794 3.80897 -39.7239 36.732 0.00587895 3.89701 30.6058 11.2072 67.4247 82.7128 0.00942541 -0.0148913 -0.000243691 37.9386 28.008 73.698 26.2405 28.4472 13.118 18.2167 29.0248 19.6359 0 22.4358 32.6146 28.1246 -8.63175 30.7051 32.2053 23.7634 -7.83088 26.7354 35.1526 30.0193 0.499158 -0.267854 -0.00233362 0.0240216 -0.523174 0.267869 0 0.510563 -0.267854 -0.00238694 8.2816e-007 -0.510558 0.267869 0 
